<svg width="40" height="40" viewBox="0 0 40 40" fill="none" xmlns="http://www.w3.org/2000/svg">
<path d="M12.2578 18.5118V15.8368C12.2578 15.6785 12.2578 15.6151 12.4645 15.6151C14.2361 15.6151 15.6761 15.5101 16.3911 15.9318C17.1078 16.3518 17.1378 16.9318 17.1495 17.1051C17.1611 17.2785 17.1561 17.5268 16.8228 18.1318C16.4895 18.7368 14.9978 18.7485 13.9211 18.7485H12.4961C12.3211 18.7485 12.2578 18.6851 12.2578 18.5118ZM17.1678 21.3151C17.3329 21.5258 17.4507 21.7696 17.5133 22.0298C17.5759 22.2901 17.5818 22.5607 17.5306 22.8235C17.4793 23.0862 17.3722 23.3348 17.2165 23.5525C17.0607 23.7702 16.8599 23.9518 16.6278 24.0851C16.2868 24.2286 15.9211 24.3039 15.5511 24.3068H12.4795C12.3211 24.3068 12.2578 24.3068 12.2578 24.1018V20.9351C12.2578 20.7768 12.2578 20.7135 12.4645 20.7135H14.5061C15.7728 20.7135 16.5645 20.6035 17.1678 21.3151Z" fill="white"/>
<path d="M28.3163 19.8477C28.2314 19.6474 28.1025 19.4689 27.9392 19.3252C27.7759 19.1815 27.5824 19.0764 27.373 19.0177C26.9544 18.9033 26.5163 18.8791 26.0876 18.9466C25.6589 19.0141 25.2495 19.1718 24.8863 19.4093C24.5244 19.775 24.2905 20.2481 24.2196 20.7577C24.2196 20.936 24.2196 20.9693 24.4313 20.9693H28.3813C28.5763 20.9693 28.5763 20.9693 28.5596 20.7243C28.541 20.4181 28.4591 20.1193 28.3163 19.8477ZM28.3163 19.8477C28.2314 19.6474 28.1008 19.4689 27.9375 19.3252C27.7742 19.1815 27.5824 19.0764 27.373 19.0177C26.9544 18.9033 26.5163 18.8791 26.0876 18.9466C25.6589 19.0141 25.2495 19.1718 24.8863 19.4093C24.5244 19.775 24.2888 20.2481 24.218 20.7577C24.218 20.936 24.218 20.9693 24.4296 20.9693H28.3813C28.5763 20.9693 28.5763 20.9693 28.5596 20.7243C28.541 20.4181 28.4558 20.1193 28.313 19.8477M30.168 4.16602H10.668C8.94406 4.16602 7.29076 4.85083 6.07177 6.06982C4.85279 7.28881 4.16797 8.94211 4.16797 10.666V30.166C4.16797 31.8899 4.85279 33.5432 6.07177 34.7622C7.29076 35.9812 8.94406 36.666 10.668 36.666H30.168C31.8919 36.666 33.5452 35.9812 34.7642 34.7622C35.9831 33.5432 36.668 31.8899 36.668 30.166V10.666C36.668 8.94211 35.9831 7.28881 34.7642 6.06982C33.5452 4.85083 31.8919 4.16602 30.168 4.16602ZM23.798 14.516C23.798 14.3877 23.798 14.3377 23.9446 14.3377H29.2096V15.7043C29.2096 15.7043 29.2146 15.801 29.128 15.801H24.0263C23.798 15.801 23.798 15.801 23.798 15.5743V14.516ZM18.923 26.461C16.923 27.5493 13.5613 27.111 9.57964 27.111V13.6393H15.933C17.558 13.6393 19.4913 14.046 20.0113 15.7677C20.2813 16.5196 20.2649 17.3447 19.9651 18.0853C19.6654 18.826 19.1033 19.4302 18.3863 19.7827C19.0472 20.0273 19.6242 20.4561 20.0491 21.0183C20.4739 21.5806 20.7287 22.2528 20.7834 22.9554C20.8382 23.658 20.6904 24.3616 20.3578 24.9829C20.0251 25.6041 19.5214 26.1171 18.9063 26.461H18.923ZM31.0296 22.626H24.5296C24.3513 22.626 24.188 22.7227 24.2196 22.951C24.4146 23.9093 24.853 24.9177 25.8463 25.0643C26.3708 25.2204 26.9325 25.1965 27.4418 24.9962C27.951 24.7959 28.3786 24.4309 28.6563 23.9593C28.6563 23.9593 28.738 23.861 28.7863 23.861H30.8996C30.8996 23.861 31.0296 23.861 30.9963 23.9743C30.7734 24.6054 30.4436 25.1935 30.0213 25.7127C29.4565 26.2522 28.7749 26.6543 28.0295 26.8878C27.2841 27.1212 26.495 27.1798 25.7233 27.0589C24.9516 26.938 24.2182 26.6409 23.5799 26.1906C22.9416 25.7404 22.4157 25.1491 22.043 24.4627C21.8137 24.005 21.6708 23.5089 21.6213 22.9993C21.3314 21.7187 21.553 20.3754 22.2388 19.2557C22.9246 18.1359 24.0204 17.3281 25.293 17.0043C28.9813 16.2077 31.3213 18.7427 31.3213 22.3177C31.3268 22.3595 31.3226 22.4019 31.309 22.4418C31.2954 22.4817 31.2729 22.518 31.2431 22.5478C31.2133 22.5776 31.177 22.6001 31.1371 22.6137C31.0972 22.6273 31.0548 22.6315 31.013 22.626H31.0296ZM27.3896 19.0177C26.9714 18.9017 26.533 18.8778 26.1046 18.9477C25.6763 19.0143 25.293 19.096 24.903 19.4093C24.513 19.721 24.3063 20.2477 24.2363 20.7577C24.2363 20.936 24.2363 20.9693 24.448 20.9693H28.3813C28.5763 20.9693 28.5763 20.9693 28.5596 20.7243C28.541 20.4181 28.4591 20.1193 28.3163 19.8477C28.2314 19.6474 28.1025 19.4689 27.9392 19.3252C27.7759 19.1815 27.5824 19.0764 27.373 19.0177H27.3896Z" fill="white"/>
</svg>
