<svg width="40" height="40" viewBox="0 0 40 40" fill="none" xmlns="http://www.w3.org/2000/svg">
<path d="M37.4331 9.99935C36.1497 10.5827 34.7664 10.966 33.3331 11.1493C34.7997 10.266 35.9331 8.86602 36.4664 7.18268C35.0831 8.01602 33.5497 8.59935 31.9331 8.93268C30.6164 7.49935 28.7664 6.66602 26.6664 6.66602C22.7497 6.66602 19.5497 9.86602 19.5497 13.816C19.5497 14.3827 19.6164 14.9327 19.7331 15.4494C13.7997 15.1494 8.51641 12.2993 4.99974 7.98268C4.38307 9.03268 4.03307 10.266 4.03307 11.566C4.03307 14.0493 5.28307 16.2493 7.21641 17.4993C6.03307 17.4993 4.93307 17.166 3.96641 16.666V16.716C3.96641 20.1827 6.43307 23.0827 9.69974 23.7327C8.65114 24.0209 7.5498 24.0609 6.48307 23.8493C6.93575 25.2701 7.8223 26.5134 9.0181 27.4042C10.2139 28.2951 11.6588 28.7888 13.1497 28.816C10.6225 30.8169 7.48975 31.8983 4.26641 31.8827C3.69974 31.8827 3.13307 31.8493 2.56641 31.7827C5.73307 33.816 9.49974 34.9993 13.5331 34.9993C26.6664 34.9993 33.8831 24.0993 33.8831 14.6493C33.8831 14.3327 33.8831 14.0327 33.8664 13.716C35.2664 12.716 36.4664 11.4493 37.4331 9.99935Z" fill="white"/>
</svg>
