<svg width="8" height="13" viewBox="0 0 8 13" fill="none" xmlns="http://www.w3.org/2000/svg">
<path d="M7.8045 6.88589L1.13858 12.3402C1.07664 12.3908 1.00312 12.431 0.922198 12.4585C0.841279 12.4859 0.75455 12.5 0.666963 12.5C0.579376 12.5 0.492647 12.4859 0.411727 12.4585C0.330807 12.431 0.257282 12.3908 0.195349 12.3402C0.133415 12.2895 0.0842872 12.2293 0.0507692 12.1631C0.0172512 12.0969 0 12.0259 0 11.9543C0 11.8826 0.0172512 11.8116 0.0507692 11.7454C0.0842872 11.6792 0.133415 11.6191 0.195349 11.5684L6.39049 6.5L0.195349 1.43162C0.0702687 1.32928 -1.31793e-09 1.19047 0 1.04573C1.31793e-09 0.900994 0.0702687 0.762185 0.195349 0.659841C0.320428 0.557496 0.490073 0.5 0.666963 0.5C0.843852 0.5 1.0135 0.557496 1.13858 0.659841L7.8045 6.11411C7.86648 6.16476 7.91564 6.22492 7.94919 6.29113C7.98273 6.35735 8 6.42832 8 6.5C8 6.57168 7.98273 6.64265 7.94919 6.70887C7.91564 6.77508 7.86648 6.83523 7.8045 6.88589Z" fill="#1C1C1C"/>
</svg>
